<?xml version="1.0" encoding="utf-8"?>
<!-- Generator: Adobe Illustrator 23.0.0, SVG Export Plug-In . SVG Version: 6.00 Build 0)  -->
<svg version="1.1" id="katman_1" xmlns="http://www.w3.org/2000/svg" xmlns:xlink="http://www.w3.org/1999/xlink" x="0px" y="0px"
	 viewBox="0 0 438.932 107.371" enable-background="new 0 0 438.932 107.371" xml:space="preserve">
<g transform="matrix(1.02763 0 0 1.02763 89.8881 154.568)">
	<path fill="#1F1011" d="M-75.841-76.628l0.2-0.4l0.3-0.1l1.4,13.6h-1L-75.841-76.628z"/>
	<path fill="#361514" d="M-15.041-100.628l-0.2-0.4l-0.5,0.2l4.8,37.3h2L-15.041-100.628z"/>
	
		<linearGradient id="SVGID_1_" gradientUnits="userSpaceOnUse" x1="-576.955" y1="-291.3508" x2="-575.8136" y2="-291.3508" gradientTransform="matrix(7.8953 -16.0097 16.0097 7.8953 9200.2842 -6981.4307)">
		<stop  offset="0" style="stop-color:#9A1E22"/>
		<stop  offset="0.6" style="stop-color:#CA2D29"/>
		<stop  offset="1" style="stop-color:#CA2D29"/>
	</linearGradient>
	<path fill-rule="evenodd" clip-rule="evenodd" fill="url(#SVGID_1_)" d="M-24.941-63.528l2.8,15.8l14.3-1.6l12.4-14.1h-29.5
		V-63.528z"/>
	
		<linearGradient id="SVGID_2_" gradientUnits="userSpaceOnUse" x1="-510.8951" y1="-346.1018" x2="-509.7538" y2="-346.1018" gradientTransform="matrix(0 13.0674 -13.0674 0 -4525.3564 6612.5659)">
		<stop  offset="0" style="stop-color:#A51E23"/>
		<stop  offset="1" style="stop-color:#A51E24"/>
	</linearGradient>
	<path fill-rule="evenodd" clip-rule="evenodd" fill="url(#SVGID_2_)" d="M4.459-63.528h-14.3l2,14.1L4.459-63.528z"/>
	
		<linearGradient id="SVGID_3_" gradientUnits="userSpaceOnUse" x1="-516.1179" y1="-342.6745" x2="-514.9765" y2="-342.6745" gradientTransform="matrix(0 14.8028 -14.8028 0 -5142.8345 7576.231)">
		<stop  offset="0" style="stop-color:#B32626"/>
		<stop  offset="1" style="stop-color:#8C181C"/>
	</linearGradient>
	<path fill-rule="evenodd" clip-rule="evenodd" fill="url(#SVGID_3_)" d="M-82.641-63.728l9.4,14.2l11.5,1.8l3.8-15.7h-16.5
		L-82.641-63.728z"/>
	<path fill="#541412" d="M-74.341-63.528l-8.3-0.2l9.5,14.3L-74.341-63.528z"/>
	<path fill="#1F1011" d="M-74.341-63.528l-1.3-13.5l-7,13.2L-74.341-63.528z"/>
	
		<linearGradient id="SVGID_4_" gradientUnits="userSpaceOnUse" x1="-569.5091" y1="-314.1083" x2="-568.3677" y2="-314.1083" gradientTransform="matrix(0 -41.1008 41.1008 0 12864.7051 -23499.9492)">
		<stop  offset="0" style="stop-color:#7E131A"/>
		<stop  offset="0.8" style="stop-color:#BE2828"/>
		<stop  offset="1" style="stop-color:#AB1F25"/>
	</linearGradient>
	<path fill-rule="evenodd" clip-rule="evenodd" fill="url(#SVGID_4_)" d="M-15.241-101.028l-23.9-44.9l-36.4,68.9L-15.241-101.028z"
		/>
	
		<linearGradient id="SVGID_5_" gradientUnits="userSpaceOnUse" x1="-256.6278" y1="280.4147" x2="-190.8882" y2="280.4147" gradientTransform="matrix(1.056 0 0 1.056 195.3566 -378.3941)">
		<stop  offset="0" style="stop-color:#4A1715"/>
		<stop  offset="1" style="stop-color:#411211"/>
	</linearGradient>
	<path fill-rule="evenodd" clip-rule="evenodd" fill="url(#SVGID_5_)" d="M-75.641-77.028l60.3-24l5.4,37.5h-64.4L-75.641-77.028z"
		/>
	<path fill="#361514" d="M-15.241-101.028l5.4,37.5h14.4L-15.241-101.028z"/>
	
		<linearGradient id="SVGID_6_" gradientUnits="userSpaceOnUse" x1="-545.1318" y1="-327.3822" x2="-543.9904" y2="-327.3822" gradientTransform="matrix(0 55.4931 -55.4931 0 -18209.1113 30105.1504)">
		<stop  offset="0" style="stop-color:#DE472F"/>
		<stop  offset="1" style="stop-color:#C82F29"/>
	</linearGradient>
	<path fill-rule="evenodd" clip-rule="evenodd" fill="url(#SVGID_6_)" d="M-53.141-85.928l23-9.1l-9-50.9L-53.141-85.928z"/>
	
		<linearGradient id="SVGID_7_" gradientUnits="userSpaceOnUse" x1="-575.3936" y1="-310.9718" x2="-574.2521" y2="-310.9718" gradientTransform="matrix(0 -29.1624 29.1624 0 9027.3398 -16843.3809)">
		<stop  offset="0" style="stop-color:#771215"/>
		<stop  offset="1" style="stop-color:#8C181C"/>
	</linearGradient>
	<path fill-rule="evenodd" clip-rule="evenodd" fill="url(#SVGID_7_)" d="M-30.141-95.028l5.2,31.5h-32.8l4.7-22.4L-30.141-95.028z"
		/>
	<g>
		<path fill="#A7A8AC" d="M31.059-143.728h2v97.4h-2V-143.728z"/>
		<path fill="#221E1F" d="M178.059-73.928c0.8-2.4,2-4.5,3.6-6.3c1.6-1.8,3.5-3.2,5.8-4.2s4.9-1.5,7.8-1.5c2.9,0,5.5,0.5,7.8,1.5
			s4.2,2.4,5.8,4.2c1.6,1.8,2.8,3.9,3.6,6.3c0.8,2.4,1.2,5.1,1.2,8c0,3-0.4,5.6-1.2,8.1c-0.8,2.4-2,4.5-3.6,6.3s-3.5,3.1-5.8,4.1
			s-4.9,1.5-7.9,1.5s-5.6-0.5-7.9-1.5c-2.3-1-4.2-2.4-5.8-4.1c-1.6-1.8-2.8-3.9-3.6-6.3s-1.2-5.1-1.2-8.1
			C176.859-68.828,177.259-71.428,178.059-73.928L178.059-73.928z M248.359-78.928c-2.4-1.4-5.1-2.2-7.9-2.2c-2.2,0-4.2,0.4-6,1.1
			c-1.8,0.8-3.4,1.8-4.7,3.2c-1.3,1.3-2.3,2.9-3,4.8c-0.7,1.8-1,3.9-1,6c0,2.3,0.4,4.4,1.1,6.2c0.8,1.8,1.8,3.4,3.1,4.8
			c1.3,1.3,2.9,2.4,4.6,3.1c1.8,0.7,3.6,1.1,5.6,1.1c0.7,0,1.4,0,2.2-0.1c0.8-0.1,1.5-0.2,2.3-0.4c0.8-0.2,1.5-0.4,2.2-0.6
			s1.3-0.5,1.7-0.8l0.3,5.4c-1.5,0.6-3,1-4.6,1.2c-1.6,0.1-3,0.2-4.1,0.2c-3.1,0-5.8-0.5-8.3-1.4s-4.6-2.3-6.4-4
			c-1.8-1.8-3.1-3.9-4.1-6.4s-1.5-5.3-1.5-8.3s0.5-5.7,1.5-8.1s2.4-4.5,4.2-6.3c1.8-1.7,4-3.1,6.5-4s5.2-1.4,8.1-1.4
			c1.5,0,3,0.1,4.4,0.4c1.4,0.2,2.9,0.7,4.3,1.3L248.359-78.928z M138.259-62.628c0,5.5-1.3,9.6-3.9,12.4c-2.6,2.8-6.3,4.2-11.1,4.2
			s-8.5-1.4-11.1-4.2c-2.6-2.8-3.9-7-3.9-12.4v-22.6h5.5v21.9c0,1.8,0.2,3.5,0.5,5.1c0.3,1.5,0.8,2.9,1.6,4c0.7,1.1,1.7,2,2.9,2.6
			s2.7,0.9,4.5,0.9s3.3-0.3,4.5-0.9s2.2-1.5,2.9-2.6s1.3-2.4,1.6-4c0.3-1.5,0.5-3.2,0.5-5.1v-21.9h5.5V-62.628z M102.759-46.628h-6
			l-3.9-9.7h-18.9l-3.9,9.7h-5.8l16.4-38.7h5.8L102.759-46.628z M289.759-46.628h-6l-3.9-9.7h-18.9l-3.9,9.7h-5.8l16.4-38.7h5.8
			L289.759-46.628z M161.359-46.628h-5.5v-33.8h-12v-4.9h29.5v4.9h-12V-46.628z M306.359-46.628h-11.4v-38.6h11.4
			c2.9,0,5.5,0.4,8,1.3s4.7,2.1,6.5,3.7c1.9,1.6,3.3,3.6,4.4,6c1.1,2.3,1.6,5,1.6,8c0,3.2-0.5,6.1-1.4,8.6c-1,2.5-2.3,4.5-4.1,6.1
			c-1.8,1.6-3.9,2.9-6.5,3.7C312.359-47.028,309.459-46.628,306.359-46.628L306.359-46.628z M183.459-60.328
			c0.5,1.8,1.3,3.4,2.3,4.8s2.3,2.6,3.9,3.4c1.6,0.8,3.5,1.3,5.7,1.3s4.1-0.4,5.7-1.3s2.9-2,3.9-3.4s1.8-3,2.3-4.8s0.7-3.7,0.7-5.6
			c0-2-0.3-3.8-0.8-5.7c-0.5-1.8-1.3-3.4-2.4-4.8c-1-1.4-2.4-2.5-3.9-3.4s-3.4-1.2-5.6-1.2s-4,0.4-5.6,1.2c-1.6,0.8-2.9,1.9-3.9,3.4
			c-1,1.4-1.8,3-2.4,4.8c-0.5,1.8-0.8,3.7-0.8,5.7C182.659-64.028,182.959-62.128,183.459-60.328L183.459-60.328z M300.459-51.428
			h5.8c4.7,0,8.4-1.2,10.9-3.5c2.5-2.4,3.8-6,3.8-11c0-2.3-0.4-4.3-1.1-6c-0.7-1.8-1.7-3.3-3-4.5c-1.3-1.2-2.8-2.2-4.5-2.8
			s-3.6-1-5.5-1h-6.5v28.8H300.459z M83.359-80.028l-7.7,19.2h15.3L83.359-80.028z M270.359-80.028l-7.7,19.2h15.3L270.359-80.028z
			 M333.759-76.628c-2.7,0-4.9-2.2-4.9-4.9s2.2-4.9,4.9-4.9c2.7,0,4.9,2.2,4.9,4.9S336.459-76.628,333.759-76.628z M333.759-85.628
			c-2.3,0-4.2,1.9-4.2,4.2c0,2.3,1.9,4.2,4.2,4.2c2.3,0,4.2-1.9,4.2-4.2C337.959-83.828,336.059-85.628,333.759-85.628z
			 M332.559-79.028h-0.7v-5.5h2c0.2,0,0.4,0,0.6,0.1c0.2,0,0.4,0.1,0.6,0.3c0.2,0.1,0.3,0.3,0.4,0.5c0.1,0.2,0.2,0.4,0.2,0.7
			c0,0.3-0.1,0.6-0.3,0.9c-0.2,0.3-0.4,0.4-0.8,0.5l1.1,2.5h-0.7l-1-2.4h-1.4V-79.028z M333.859-81.928c0.2,0,0.4,0,0.5,0
			c0.2,0,0.3-0.1,0.4-0.3c0.1-0.1,0.2-0.2,0.2-0.3s0.1-0.3,0.1-0.4c0-0.2,0-0.3-0.1-0.4s-0.2-0.2-0.3-0.3c-0.1-0.1-0.2-0.1-0.4-0.2
			c-0.1,0-0.2,0-0.4,0h-1.3v1.9H333.859z M132.259-119.628c0,2.8-0.5,5.1-1.4,7c-0.9,1.8-2.1,3.3-3.4,4.3c-1.4,1-2.9,1.8-4.5,2.2
			s-3.1,0.6-4.5,0.6s-2.9-0.2-4.5-0.6s-3.1-1.1-4.5-2.2c-1.4-1-2.5-2.5-3.4-4.3c-0.9-1.8-1.4-4.1-1.4-7v-24.9h3.8v24.9
			c0,1.6,0.2,3,0.6,4.3c0.4,1.3,1.1,2.4,1.9,3.4c0.9,0.9,1.9,1.7,3.2,2.2s2.7,0.8,4.4,0.8s3.1-0.3,4.4-0.8c1.3-0.5,2.3-1.3,3.2-2.2
			c0.9-0.9,1.5-2.1,1.9-3.4c0.4-1.3,0.6-2.8,0.6-4.3v-24.9h3.8L132.259-119.628z M271.059-111.128c1.1,0.7,2.4,1.3,3.7,1.7
			c1.3,0.4,2.9,0.6,4.7,0.6c1.2,0,2.3-0.2,3.3-0.5c1-0.3,2-0.8,2.7-1.4c0.8-0.6,1.4-1.5,1.9-2.4c0.5-1,0.7-2.2,0.7-3.5
			c0-1.2-0.4-2.3-1.3-3.3c-0.9-0.9-1.9-1.8-3.3-2.6c-1.3-0.8-2.7-1.6-4.2-2.4c-1.5-0.8-2.9-1.7-4.2-2.6c-1.3-0.9-2.4-2-3.3-3.2
			s-1.3-2.6-1.3-4.3c0-1.5,0.3-2.9,0.9-4.1s1.5-2.3,2.6-3.1c1.1-0.9,2.4-1.5,3.9-2s3.1-0.7,4.7-0.7c0.9,0,2.1,0.1,3.5,0.2
			c1.4,0.2,2.7,0.5,4,1l-0.5,3.3c-0.8-0.5-1.9-0.8-3.1-1.1c-1.3-0.2-2.5-0.4-3.8-0.4c-1,0-2,0.1-3,0.3c-1,0.2-1.9,0.6-2.7,1.1
			c-0.8,0.5-1.4,1.2-1.9,2s-0.7,1.9-0.7,3.1c0,1.3,0.4,2.4,1.3,3.3c0.9,0.9,1.9,1.8,3.3,2.5c1.3,0.8,2.7,1.6,4.2,2.3
			c1.5,0.7,2.9,1.6,4.2,2.6c1.3,1,2.4,2.1,3.3,3.4c0.9,1.3,1.3,2.9,1.3,4.7c0,1.9-0.4,3.6-1.1,5s-1.7,2.5-2.9,3.3
			c-1.2,0.9-2.6,1.5-4.1,1.9s-3,0.6-4.4,0.6c-1.9,0-3.5-0.2-5-0.5c-1.4-0.3-2.7-0.7-3.7-1.1L271.059-111.128z M167.859-132.828
			c0.7-2.4,1.7-4.5,3.1-6.3c1.4-1.8,3.1-3.3,5.3-4.4c2.1-1.1,4.6-1.6,7.5-1.6s5.4,0.5,7.5,1.6c2.1,1.1,3.9,2.6,5.3,4.4
			c1.4,1.8,2.4,3.9,3.1,6.3c0.7,2.4,1,4.9,1,7.4c0,2.9-0.4,5.6-1.1,8c-0.7,2.4-1.8,4.5-3.2,6.2c-1.4,1.7-3.2,3.1-5.3,4
			c-2.1,1-4.5,1.5-7.3,1.5c-2.7,0-5.2-0.5-7.3-1.5s-3.9-2.3-5.3-4c-1.4-1.7-2.5-3.8-3.2-6.2s-1.1-5.1-1.1-8
			C166.859-127.928,167.259-130.428,167.859-132.828z M264.059-106.228h-19.4v-38.3h18.7v3.3h-14.9v13.6h14.2v3.3h-14.2v14.7h15.6
			L264.059-106.228z M152.259-106.228h-3.8v-35h-11.3v-3.3h26.3v3.3h-11.3v35H152.259z M214.559-106.228h-6.7v-38.3h9.5
			c3.4,0,6.3,0.5,8.8,1.4c2.4,0.9,4.4,2.2,5.9,3.9s2.7,3.7,3.4,6c0.7,2.3,1.1,4.9,1.1,7.7c0,3.5-0.5,6.4-1.6,8.8s-2.6,4.4-4.6,5.9
			s-4.3,2.6-6.9,3.3C220.659-106.628,217.759-106.228,214.559-106.228z M303.759-106.228h-3.8v-38.3h3.8v17.1l17.2-17.1h4.9
			l-18.5,18l20.1,20.2h-5.2l-18.5-19.1V-106.228z M99.359-106.228h-3.9l-4.1-10.2h-19.3l-4.1,10.2h-3.7l15.7-38.2h4.3
			L99.359-106.228z M177.959-140.428c-1.6,0.9-3,2.2-4.1,3.8c-1.1,1.6-1.9,3.3-2.4,5.3s-0.8,4-0.8,6s0.3,4,0.8,6s1.3,3.7,2.4,5.3
			c1.1,1.6,2.4,2.8,4.1,3.8c1.6,0.9,3.6,1.4,5.8,1.4s4.2-0.5,5.8-1.4c1.6-0.9,3-2.2,4.1-3.8s1.9-3.3,2.4-5.3s0.8-4,0.8-6
			s-0.3-4-0.8-6s-1.3-3.7-2.4-5.3c-1.1-1.6-2.4-2.8-4.1-3.8c-1.6-0.9-3.6-1.4-5.8-1.4
			C181.459-141.828,179.559-141.428,177.959-140.428z M211.659-109.528h3.1c2.7,0,5.2-0.3,7.4-0.9c2.2-0.6,4.1-1.5,5.6-2.8
			c1.6-1.3,2.8-2.9,3.6-5c0.9-2,1.3-4.5,1.3-7.4s-0.4-5.4-1.2-7.4c-0.8-2-1.9-3.6-3.3-4.8c-1.4-1.2-3-2.1-4.9-2.6s-3.9-0.8-6-0.8
			h-5.5L211.659-109.528z M81.859-140.828l-8.3,21.1h16.6L81.859-140.828z M334.759-135.728c-2.7,0-4.9-2.2-4.9-4.9
			c0-2.7,2.2-4.9,4.9-4.9c2.7,0,4.9,2.2,4.9,4.9C339.659-137.928,337.559-135.728,334.759-135.728z M334.759-144.728
			c-2.3,0-4.2,1.9-4.2,4.2s1.9,4.2,4.2,4.2c2.3,0,4.2-1.9,4.2-4.2S337.059-144.728,334.759-144.728z M333.659-138.128h-0.7v-5.5h2
			c0.2,0,0.4,0,0.6,0.1c0.2,0,0.4,0.1,0.6,0.3c0.2,0.1,0.3,0.3,0.4,0.5s0.2,0.4,0.2,0.7s-0.1,0.6-0.3,0.9c-0.2,0.3-0.4,0.4-0.7,0.5
			l1.1,2.5h-0.7l-1-2.4h-1.5V-138.128z M334.859-141.128c0.2,0,0.4,0,0.5,0c0.2,0,0.3-0.1,0.4-0.3c0.1-0.1,0.2-0.2,0.2-0.3
			s0.1-0.3,0.1-0.4c0-0.2,0-0.3-0.1-0.4c-0.1-0.1-0.2-0.2-0.3-0.3c-0.1-0.1-0.2-0.1-0.4-0.2c-0.1,0-0.3,0-0.4,0h-1.4v1.9H334.859z"
			/>
	</g>
</g>
</svg>
