<?xml version="1.0" encoding="utf-8"?>
<!-- Generator: Adobe Illustrator 23.0.0, SVG Export Plug-In . SVG Version: 6.00 Build 0)  -->
<svg version="1.1" id="图层_1" xmlns="http://www.w3.org/2000/svg" xmlns:xlink="http://www.w3.org/1999/xlink" x="0px" y="0px"
	 viewBox="0 0 651.97 218.27" style="enable-background:new 0 0 651.97 218.27;" xml:space="preserve">
<style type="text/css">
	.st0{fill:#007DC5;}
</style>
<g id="XMLID_23_">
	<g>
		<g>
			<path class="st0" d="M154.11,186.76c-57.19,5.28-116.79-3.02-125.13-47.71c-4.09-22.03,5.96-45.39,19.27-59.89v-7.76
				c-23.98,21.03-36.98,47.63-29.5,79.07c9.57,40.32,60.71,63.16,138.78,55.57c30.89-3,71.31-12.94,99.43-28.37v-21.92
				C231.45,170.94,189.25,183.49,154.11,186.76 M304.73,70.87C291.16,4.64,162.59,0.45,79.72,50.89v5.57
				c82.78-42.55,200.19-42.3,210.89,18.7c3.57,20.17-7.79,41.2-28.09,53.29v15.82C286.96,135.32,312.01,106.35,304.73,70.87z
				 M252.34,143.7c-11.2-1.08-15-7.88-15-15.72V61.23h15V143.7z M73.82,144.94c-11.22-1.08-15.03-7.89-15.03-15.72l0.01-43.62h15.01
				V144.94z M58.81,63.25h14.97v14.22H58.81V63.25z M163.61,144.25c-12.13,0-17.27-8.43-17.27-16.75v-57.9h14.86V85.6h11.19v12
				H161.2v28.97c0,3.4,1.62,5.29,5.15,5.29h6.03v12.39H163.61 M190.97,119.56c0,7.61,4.73,13.2,13.17,13.2
				c6.57,0,9.84-1.81,13.64-5.59l9.18,8.76c-5.88,5.82-12.05,9.35-22.93,9.35c-14.24,0-27.87-7.77-27.87-30.4
				c0-19.33,11.9-30.27,27.54-30.27c15.85,0,24.99,12.81,24.99,29.6v5.36H190.97 M203.05,96.9c-5.09,0-9.01,2.61-10.66,6.16
				c-0.97,2.13-1.31,3.76-1.42,6.37h22.88C213.56,103.06,210.67,96.9,203.05,96.9z M101.89,97.6v46.73H87.02V85.6l30.71,0.03
				c13.05,0,17.5,9.2,17.5,17.55v41.16h-14.86v-41.08c0-3.5-1.81-5.65-6.17-5.65H101.89z"/>
			<path class="st0" d="M268.48,73.16c-3.3,0-5.95-2.68-5.95-5.97s2.64-5.97,5.95-5.97c3.29,0,5.99,2.68,5.99,5.97
				S271.77,73.16,268.48,73.16 M268.48,62.22c-2.72,0-4.92,2.24-4.92,4.97c0,2.72,2.2,4.94,4.92,4.94c2.73,0,4.96-2.21,4.96-4.94
				C273.44,64.46,271.21,62.22,268.48,62.22z M271.12,70.76h-1.11c-0.1,0-0.19-0.07-0.23-0.16l-1.52-2.56
				c-0.02-0.05-0.15-0.11-0.21-0.11c0,0-0.24,0-0.43,0c-0.1,0-0.21,0-0.24,0v2.55c0,0.12-0.1,0.28-0.27,0.28h-1
				c-0.13,0-0.25-0.16-0.25-0.28v-6.45c0-0.37,0.13-0.53,0.46-0.57c0.35-0.04,1.3-0.08,1.83-0.08c1.84,0,2.96,0.54,2.96,2.27v0.12
				c0,1.08-0.53,1.64-1.36,1.91l1.57,2.66c0.02,0.04,0.04,0.13,0.04,0.18C271.36,70.64,271.29,70.76,271.12,70.76z M269.66,65.65
				c0-0.72-0.42-0.95-1.4-0.95c-0.11,0-0.43,0-0.67,0c-0.12,0-0.21,0-0.26,0v2.05c0.14,0,0.82,0.02,0.93,0.02c0.98,0,1.4-0.32,1.4-1
				V65.65z"/>
			<path class="st0" d="M346.33,107.76v30.5h40.85v6.08h-47.83V66.68h47.15v6.08h-40.18v28.92h34.55v6.08H346.33 M418.46,86.93
				c4.51,0,8.45,0.93,11.82,2.76c3.38,1.84,5.99,4.37,7.87,7.59V63.64h6.64v80.69h-3.38c-2.1,0-3.16-1.01-3.16-3.04v-7.32
				c-1.65,3.6-4.24,6.47-7.76,8.61c-3.52,2.14-7.77,3.2-12.72,3.2c-3.82,0-7.25-0.69-10.29-2.08c-3.05-1.39-5.63-3.34-7.77-5.86
				c-2.13-2.51-3.77-5.58-4.89-9.22c-1.13-3.64-1.69-7.71-1.69-12.21c0-4.73,0.62-8.93,1.85-12.6c1.24-3.67,2.98-6.75,5.24-9.23
				c2.25-2.47,4.91-4.37,7.99-5.68C411.3,87.59,414.71,86.93,418.46,86.93z M438.38,115.86c0-7.43-1.67-13.11-5.01-17.05
				c-3.34-3.94-8.04-5.91-14.12-5.91c-6.08,0-10.81,2.06-14.18,6.19c-3.38,4.12-5.06,9.94-5.06,17.44c0,7.28,1.59,12.98,4.78,17.1
				c3.2,4.13,7.79,6.19,13.79,6.19c6.29,0,11.18-2.17,14.62-6.52C436.65,128.95,438.38,123.14,438.38,115.86z M459.87,66.45h7.76
				v8.67h-7.76V66.45z M460.43,88.4h6.64v55.93h-6.64V88.4z M500.16,92.68c-4.2,0-7.56,0.75-10.07,2.24
				c-2.52,1.51-3.77,3.9-3.77,7.21c0,2.4,0.71,4.28,2.14,5.63c1.42,1.35,3.52,2.43,6.3,3.26l11.25,3.49
				c4.51,1.35,7.84,3.17,10.02,5.46c2.17,2.29,3.26,5.34,3.26,9.17c0,5.03-1.78,9.06-5.34,12.1c-3.56,3.04-8.53,4.55-14.91,4.55
				c-4.51,0-8.59-0.73-12.27-2.19c-3.67-1.47-6.6-3.17-8.78-5.13l3.15-4.73c2.4,1.88,5.08,3.38,8.05,4.51
				c2.96,1.12,6.17,1.69,9.63,1.69c4.5,0,7.93-0.92,10.3-2.76c2.36-1.84,3.54-4.44,3.54-7.82c0-2.4-0.66-4.29-1.97-5.68
				c-1.31-1.39-3.47-2.53-6.47-3.43l-11.48-3.49c-4.27-1.27-7.5-3.07-9.68-5.4c-2.18-2.32-3.27-5.36-3.27-9.12
				c0-2.47,0.51-4.67,1.52-6.58c1.01-1.91,2.39-3.5,4.16-4.78c1.76-1.27,3.88-2.25,6.36-2.93c2.48-0.67,5.17-1.01,8.1-1.01
				c3.3,0,6.53,0.43,9.68,1.3c3.15,0.86,5.93,2.16,8.33,3.88l-2.7,4.62c-2.1-1.28-4.41-2.27-6.92-2.98
				C505.8,93.03,503.09,92.68,500.16,92.68z M554.4,145.79c-4.05,0-7.71-0.69-10.98-2.08c-3.26-1.39-6.06-3.36-8.38-5.91
				c-2.32-2.55-4.13-5.64-5.4-9.28c-1.28-3.64-1.92-7.71-1.92-12.21c0-4.5,0.64-8.57,1.92-12.21c1.27-3.64,3.07-6.72,5.4-9.23
				c2.32-2.51,5.12-4.46,8.38-5.85c3.27-1.39,6.92-2.09,10.98-2.09c4.05,0,7.71,0.7,10.97,2.09c3.26,1.39,6.05,3.34,8.38,5.85
				c2.32,2.51,4.12,5.59,5.4,9.23c1.27,3.63,1.91,7.71,1.91,12.21c0,4.5-0.64,8.57-1.91,12.21c-1.28,3.63-3.08,6.73-5.4,9.28
				c-2.33,2.55-5.13,4.52-8.38,5.91C562.11,145.1,558.45,145.79,554.4,145.79z M534.6,116.31c0,7.5,1.76,13.3,5.29,17.39
				c3.52,4.09,8.36,6.13,14.52,6.13c6.15,0,10.99-2.04,14.51-6.13c3.53-4.09,5.29-9.88,5.29-17.39c0-7.5-1.76-13.28-5.29-17.33
				c-3.52-4.05-8.37-6.07-14.51-6.07c-6.16,0-10.99,2.02-14.52,6.07C536.36,103.03,534.6,108.81,534.6,116.31z M593.34,88.4h3.38
				c2.1,0,3.15,1.01,3.15,3.04v7.32c1.73-3.67,4.35-6.57,7.88-8.67c3.52-2.1,7.66-3.16,12.38-3.16c6.37,0,11.33,1.85,14.85,5.52
				c3.52,3.67,5.29,8.93,5.29,15.75v36.13h-6.64v-34.67c0-5.63-1.11-9.83-3.32-12.6c-2.21-2.78-5.79-4.17-10.75-4.17
				c-6.08,0-10.85,2.1-14.35,6.3c-3.48,4.2-5.22,10.02-5.22,17.44v27.69h-6.64V88.4z"/>
		</g>
	</g>
</g>
</svg>
